<svg version="1.1" xmlns="http://www.w3.org/2000/svg" xmlns:xlink="http://www.w3.org/1999/xlink" width="604" height="515"><defs><linearGradient id="hGecFJwceqTf" x1="0px" x2="32px" y1="0px" y2="0px" gradientUnits="userSpaceOnUse"><stop offset="0" stop-color="#38c738"/><stop offset="1" stop-color="#877878"/></linearGradient><linearGradient id="JCwSvICbwfMJ" x1="0px" x2="32px" y1="0px" y2="0px" gradientUnits="userSpaceOnUse"><stop offset="0" stop-color="#38c738"/><stop offset="1" stop-color="#877878"/></linearGradient><linearGradient id="lpWGraHqSTIH" x1="0px" x2="32px" y1="0px" y2="0px" gradientUnits="userSpaceOnUse"><stop offset="0" stop-color="#38c738"/><stop offset="1" stop-color="#877878"/></linearGradient><linearGradient id="BZTFPfPUNEcT" x1="0px" x2="32px" y1="0px" y2="0px" gradientUnits="userSpaceOnUse"><stop offset="0" stop-color="#38c738"/><stop offset="1" stop-color="#877878"/></linearGradient><linearGradient id="SlAqdpVdbPFt" x1="0px" x2="32px" y1="0px" y2="0px" gradientUnits="userSpaceOnUse"><stop offset="0" stop-color="#38c738"/><stop offset="1" stop-color="#877878"/></linearGradient><linearGradient id="gwxTOsSPnKNM" x1="0px" x2="32px" y1="0px" y2="0px" gradientUnits="userSpaceOnUse"><stop offset="0" stop-color="#38c738"/><stop offset="1" stop-color="#877878"/></linearGradient><linearGradient id="dlBIzukTHiue" x1="0px" x2="32px" y1="0px" y2="0px" gradientUnits="userSpaceOnUse"><stop offset="0" stop-color="#38c738"/><stop offset="1" stop-color="#877878"/></linearGradient><linearGradient id="RSEiImCiZiKX" x1="0px" x2="32px" y1="0px" y2="0px" gradientUnits="userSpaceOnUse"><stop offset="0" stop-color="#38c738"/><stop offset="1" stop-color="#877878"/></linearGradient></defs><g><rect fill="#000000" stroke="none" x="0" y="0" width="883" height="770"/><g transform="scale(1,1) translate(54,33)"><path fill="none" stroke="#08f708" paint-order="fill stroke markers" d=" M 208 112 L 320 112" stroke-miterlimit="10" stroke-width="3" stroke-dasharray=""/><text fill="#ffffff" stroke="none" font-family="sans-serif" font-size="12px" font-style="normal" font-weight="normal" text-decoration="normal" x="264" y="106" text-anchor="start" dominant-baseline="alphabetic"></text><path fill="none" stroke="#38c738" paint-order="fill stroke markers" d=" M 320 192 L 320 232" stroke-miterlimit="10" stroke-width="3" stroke-dasharray=""/><path fill="none" stroke="#877878" paint-order="fill stroke markers" d=" M 320 264 L 320 304" stroke-miterlimit="10" stroke-width="3" stroke-dasharray=""/><g transform="matrix(0,1,-1,0,320,232)"><path fill="none" stroke="url(#hGecFJwceqTf)" paint-order="fill stroke markers" d=" M 0 0 L 2 6 L 6 -6 L 10 6 L 14 -6 L 18 6 L 22 -6 L 26 6 L 30 -6 L 32 0" stroke-miterlimit="10" stroke-width="3" stroke-dasharray=""/></g><text fill="#ffffff" stroke="none" font-family="sans-serif" font-size="12px" font-style="normal" font-weight="normal" text-decoration="normal" x="330" y="254" text-anchor="start" dominant-baseline="alphabetic">1.2k</text><path fill="none" stroke="#877878" paint-order="fill stroke markers" d=" M 320 336 L 320 352" stroke-miterlimit="10" stroke-width="3" stroke-dasharray=""/><text fill="#ffffff" stroke="none" font-family="sans-serif" font-size="12px" font-style="normal" font-weight="normal" text-decoration="normal" x="326" y="350" text-anchor="start" dominant-baseline="alphabetic"></text><path fill="none" stroke="#877878" paint-order="fill stroke markers" d=" M 224 448 L 202 448" stroke-miterlimit="10" stroke-width="3" stroke-dasharray=""/><path fill="none" stroke="#877878" paint-order="fill stroke markers" d=" M 224 416 L 202 416" stroke-miterlimit="10" stroke-width="3" stroke-dasharray=""/><path fill="none" stroke="#877878" paint-order="fill stroke markers" d=" M 202 448 L 202 443" stroke-miterlimit="10" stroke-width="3" stroke-dasharray=""/><path fill="none" stroke="#877878" paint-order="fill stroke markers" d=" M 202 437 L 202 432" stroke-miterlimit="10" stroke-width="3" stroke-dasharray=""/><path fill="none" stroke="#877878" paint-order="fill stroke markers" d=" M 202 432 L 202 427" stroke-miterlimit="10" stroke-width="3" stroke-dasharray=""/><path fill="none" stroke="#877878" paint-order="fill stroke markers" d=" M 202 421 L 202 416" stroke-miterlimit="10" stroke-width="3" stroke-dasharray=""/><path fill="none" stroke="#877878" paint-order="fill stroke markers" d=" M 202 448 L 202 453" stroke-miterlimit="10" stroke-width="3" stroke-dasharray=""/><path fill="none" stroke="#877878" paint-order="fill stroke markers" d=" M 202 416 L 202 411" stroke-miterlimit="10" stroke-width="3" stroke-dasharray=""/><path fill="none" stroke="#877878" paint-order="fill stroke markers" d=" M 224 448 L 224 432" stroke-miterlimit="10" stroke-width="3" stroke-dasharray=""/><path fill="none" stroke="#877878" paint-order="fill stroke markers" d=" M 224 432 L 202 432" stroke-miterlimit="10" stroke-width="3" stroke-dasharray=""/><path fill="#877878" stroke="none" paint-order="stroke fill markers" d=" M 202 432 L 214 437 L 214 427 Z"/><path fill="none" stroke="#877878" paint-order="fill stroke markers" d=" M 16 432 L 196 432" stroke-miterlimit="10" stroke-width="3" stroke-dasharray=""/><path fill="none" stroke="#877878" paint-order="fill stroke markers" d=" M 196 424 L 196 440" stroke-miterlimit="10" stroke-width="3" stroke-dasharray=""/><path fill="none" stroke="#00ffff" paint-order="fill stroke markers" d=" M 208 112 L 177 112" stroke-miterlimit="10" stroke-width="3" stroke-dasharray=""/><g><text fill="#00ffff" stroke="none" font-family="sans-serif" font-size="12px" font-style="normal" font-weight="normal" text-decoration="normal" x="152" y="112" text-anchor="start" dominant-baseline="central">+5V</text></g><path fill="#ffffff" stroke="none" paint-order="stroke fill markers" d=" M 211 112 A 3 3 0 1 1 210.99999999995774 111.99998407846124 Z"/><path fill="none" stroke="#877878" paint-order="fill stroke markers" d=" M 320 352 L 320 368" stroke-miterlimit="10" stroke-width="3" stroke-dasharray=""/><path fill="none" stroke="#877878" paint-order="fill stroke markers" d=" M 330 368 L 310 368" stroke-miterlimit="10" stroke-width="3" stroke-dasharray=""/><path fill="none" stroke="#877878" paint-order="fill stroke markers" d=" M 326 373 L 314 373" stroke-miterlimit="10" stroke-width="3" stroke-dasharray=""/><path fill="none" stroke="#877878" paint-order="fill stroke markers" d=" M 322 378 L 318 378" stroke-miterlimit="10" stroke-width="3" stroke-dasharray=""/><path fill="none" stroke="#877878" paint-order="fill stroke markers" d=" M 112 320 L 81 320" stroke-miterlimit="10" stroke-width="3" stroke-dasharray=""/><g><text fill="#ffffff" stroke="none" font-family="sans-serif" font-size="12px" font-style="normal" font-weight="normal" text-decoration="normal" x="51" y="320" text-anchor="start" dominant-baseline="central">pin 4</text></g><path fill="none" stroke="#08f708" paint-order="fill stroke markers" d=" M 320 112 L 320 140" stroke-miterlimit="10" stroke-width="3" stroke-dasharray=""/><path fill="none" stroke="#38c738" paint-order="fill stroke markers" d=" M 320 164 L 320 192" stroke-miterlimit="10" stroke-width="3" stroke-dasharray=""/><path fill="none" stroke="#808080" paint-order="fill stroke markers" d=" M 331.76 152 A 11.76 11.76 0 1 1 331.7599941200005 151.98824000195998" stroke-miterlimit="10" stroke-width="3" stroke-dasharray=""/><path fill="#bd0000" stroke="none" paint-order="stroke fill markers" d=" M 328 152 A 8 8 0 1 1 327.99999999988734 151.9999575425633 Z"/><path fill="none" stroke="#08f708" paint-order="fill stroke markers" d=" M 352 112 L 352 140" stroke-miterlimit="10" stroke-width="3" stroke-dasharray=""/><path fill="none" stroke="#38c738" paint-order="fill stroke markers" d=" M 352 164 L 352 192" stroke-miterlimit="10" stroke-width="3" stroke-dasharray=""/><path fill="none" stroke="#808080" paint-order="fill stroke markers" d=" M 363.76 152 A 11.76 11.76 0 1 1 363.7599941200005 151.98824000195998" stroke-miterlimit="10" stroke-width="3" stroke-dasharray=""/><path fill="#bd0000" stroke="none" paint-order="stroke fill markers" d=" M 360 152 A 8 8 0 1 1 359.99999999988734 151.9999575425633 Z"/><path fill="none" stroke="#08f708" paint-order="fill stroke markers" d=" M 368 112 L 368 140" stroke-miterlimit="10" stroke-width="3" stroke-dasharray=""/><path fill="none" stroke="#38c738" paint-order="fill stroke markers" d=" M 368 164 L 368 192" stroke-miterlimit="10" stroke-width="3" stroke-dasharray=""/><path fill="none" stroke="#808080" paint-order="fill stroke markers" d=" M 379.76 152 A 11.76 11.76 0 1 1 379.7599941200005 151.98824000195998" stroke-miterlimit="10" stroke-width="3" stroke-dasharray=""/><path fill="#bd0000" stroke="none" paint-order="stroke fill markers" d=" M 376 152 A 8 8 0 1 1 375.99999999988734 151.9999575425633 Z"/><path fill="none" stroke="#08f708" paint-order="fill stroke markers" d=" M 384 112 L 384 140" stroke-miterlimit="10" stroke-width="3" stroke-dasharray=""/><path fill="none" stroke="#38c738" paint-order="fill stroke markers" d=" M 384 164 L 384 192" stroke-miterlimit="10" stroke-width="3" stroke-dasharray=""/><path fill="none" stroke="#808080" paint-order="fill stroke markers" d=" M 395.76 152 A 11.76 11.76 0 1 1 395.7599941200005 151.98824000195998" stroke-miterlimit="10" stroke-width="3" stroke-dasharray=""/><path fill="#bd0000" stroke="none" paint-order="stroke fill markers" d=" M 392 152 A 8 8 0 1 1 391.99999999988734 151.9999575425633 Z"/><path fill="none" stroke="#08f708" paint-order="fill stroke markers" d=" M 432 112 L 432 140" stroke-miterlimit="10" stroke-width="3" stroke-dasharray=""/><path fill="none" stroke="#38c738" paint-order="fill stroke markers" d=" M 432 164 L 432 192" stroke-miterlimit="10" stroke-width="3" stroke-dasharray=""/><path fill="none" stroke="#808080" paint-order="fill stroke markers" d=" M 443.76 152 A 11.76 11.76 0 1 1 443.7599941200005 151.98824000195998" stroke-miterlimit="10" stroke-width="3" stroke-dasharray=""/><path fill="#bd0000" stroke="none" paint-order="stroke fill markers" d=" M 440 152 A 8 8 0 1 1 439.99999999988734 151.9999575425633 Z"/><path fill="none" stroke="#08f708" paint-order="fill stroke markers" d=" M 448 112 L 448 140" stroke-miterlimit="10" stroke-width="3" stroke-dasharray=""/><path fill="none" stroke="#38c738" paint-order="fill stroke markers" d=" M 448 164 L 448 192" stroke-miterlimit="10" stroke-width="3" stroke-dasharray=""/><path fill="none" stroke="#808080" paint-order="fill stroke markers" d=" M 459.76 152 A 11.76 11.76 0 1 1 459.7599941200005 151.98824000195998" stroke-miterlimit="10" stroke-width="3" stroke-dasharray=""/><path fill="#bd0000" stroke="none" paint-order="stroke fill markers" d=" M 456 152 A 8 8 0 1 1 455.99999999988734 151.9999575425633 Z"/><path fill="none" stroke="#08f708" paint-order="fill stroke markers" d=" M 464 112 L 464 140" stroke-miterlimit="10" stroke-width="3" stroke-dasharray=""/><path fill="none" stroke="#38c738" paint-order="fill stroke markers" d=" M 464 164 L 464 192" stroke-miterlimit="10" stroke-width="3" stroke-dasharray=""/><path fill="none" stroke="#808080" paint-order="fill stroke markers" d=" M 475.76 152 A 11.76 11.76 0 1 1 475.7599941200005 151.98824000195998" stroke-miterlimit="10" stroke-width="3" stroke-dasharray=""/><path fill="#bd0000" stroke="none" paint-order="stroke fill markers" d=" M 472 152 A 8 8 0 1 1 471.99999999988734 151.9999575425633 Z"/><path fill="none" stroke="#08f708" paint-order="fill stroke markers" d=" M 480 112 L 480 140" stroke-miterlimit="10" stroke-width="3" stroke-dasharray=""/><path fill="none" stroke="#38c738" paint-order="fill stroke markers" d=" M 480 164 L 480 192" stroke-miterlimit="10" stroke-width="3" stroke-dasharray=""/><path fill="none" stroke="#808080" paint-order="fill stroke markers" d=" M 491.76 152 A 11.76 11.76 0 1 1 491.7599941200005 151.98824000195998" stroke-miterlimit="10" stroke-width="3" stroke-dasharray=""/><path fill="#bd0000" stroke="none" paint-order="stroke fill markers" d=" M 488 152 A 8 8 0 1 1 487.99999999988734 151.9999575425633 Z"/><path fill="none" stroke="#08f708" paint-order="fill stroke markers" d=" M 320 112 L 352 112" stroke-miterlimit="10" stroke-width="3" stroke-dasharray=""/><text fill="#ffffff" stroke="none" font-family="sans-serif" font-size="12px" font-style="normal" font-weight="normal" text-decoration="normal" x="336" y="106" text-anchor="start" dominant-baseline="alphabetic"></text><path fill="none" stroke="#08f708" paint-order="fill stroke markers" d=" M 352 112 L 368 112" stroke-miterlimit="10" stroke-width="3" stroke-dasharray=""/><text fill="#ffffff" stroke="none" font-family="sans-serif" font-size="12px" font-style="normal" font-weight="normal" text-decoration="normal" x="360" y="106" text-anchor="start" dominant-baseline="alphabetic"></text><path fill="none" stroke="#08f708" paint-order="fill stroke markers" d=" M 368 112 L 384 112" stroke-miterlimit="10" stroke-width="3" stroke-dasharray=""/><text fill="#ffffff" stroke="none" font-family="sans-serif" font-size="12px" font-style="normal" font-weight="normal" text-decoration="normal" x="376" y="106" text-anchor="start" dominant-baseline="alphabetic"></text><path fill="none" stroke="#08f708" paint-order="fill stroke markers" d=" M 384 112 L 432 112" stroke-miterlimit="10" stroke-width="3" stroke-dasharray=""/><text fill="#ffffff" stroke="none" font-family="sans-serif" font-size="12px" font-style="normal" font-weight="normal" text-decoration="normal" x="408" y="106" text-anchor="start" dominant-baseline="alphabetic"></text><path fill="none" stroke="#08f708" paint-order="fill stroke markers" d=" M 432 112 L 448 112" stroke-miterlimit="10" stroke-width="3" stroke-dasharray=""/><text fill="#ffffff" stroke="none" font-family="sans-serif" font-size="12px" font-style="normal" font-weight="normal" text-decoration="normal" x="440" y="106" text-anchor="start" dominant-baseline="alphabetic"></text><path fill="none" stroke="#08f708" paint-order="fill stroke markers" d=" M 448 112 L 464 112" stroke-miterlimit="10" stroke-width="3" stroke-dasharray=""/><text fill="#ffffff" stroke="none" font-family="sans-serif" font-size="12px" font-style="normal" font-weight="normal" text-decoration="normal" x="456" y="106" text-anchor="start" dominant-baseline="alphabetic"></text><path fill="none" stroke="#08f708" paint-order="fill stroke markers" d=" M 464 112 L 480 112" stroke-miterlimit="10" stroke-width="3" stroke-dasharray=""/><text fill="#ffffff" stroke="none" font-family="sans-serif" font-size="12px" font-style="normal" font-weight="normal" text-decoration="normal" x="472" y="106" text-anchor="start" dominant-baseline="alphabetic"></text><path fill="none" stroke="#38c738" paint-order="fill stroke markers" d=" M 352 192 L 352 232" stroke-miterlimit="10" stroke-width="3" stroke-dasharray=""/><path fill="none" stroke="#877878" paint-order="fill stroke markers" d=" M 352 264 L 352 304" stroke-miterlimit="10" stroke-width="3" stroke-dasharray=""/><g transform="matrix(0,1,-1,0,352,232)"><path fill="none" stroke="url(#JCwSvICbwfMJ)" paint-order="fill stroke markers" d=" M 0 0 L 2 6 L 6 -6 L 10 6 L 14 -6 L 18 6 L 22 -6 L 26 6 L 30 -6 L 32 0" stroke-miterlimit="10" stroke-width="3" stroke-dasharray=""/></g><text fill="#ffffff" stroke="none" font-family="sans-serif" font-size="12px" font-style="normal" font-weight="normal" text-decoration="normal" x="362" y="254" text-anchor="start" dominant-baseline="alphabetic">1.2k</text><path fill="none" stroke="#38c738" paint-order="fill stroke markers" d=" M 368 192 L 368 232" stroke-miterlimit="10" stroke-width="3" stroke-dasharray=""/><path fill="none" stroke="#877878" paint-order="fill stroke markers" d=" M 368 264 L 368 304" stroke-miterlimit="10" stroke-width="3" stroke-dasharray=""/><g transform="matrix(0,1,-1,0,368,232)"><path fill="none" stroke="url(#lpWGraHqSTIH)" paint-order="fill stroke markers" d=" M 0 0 L 2 6 L 6 -6 L 10 6 L 14 -6 L 18 6 L 22 -6 L 26 6 L 30 -6 L 32 0" stroke-miterlimit="10" stroke-width="3" stroke-dasharray=""/></g><text fill="#ffffff" stroke="none" font-family="sans-serif" font-size="12px" font-style="normal" font-weight="normal" text-decoration="normal" x="378" y="254" text-anchor="start" dominant-baseline="alphabetic">1.2k</text><path fill="none" stroke="#38c738" paint-order="fill stroke markers" d=" M 384 192 L 384 232" stroke-miterlimit="10" stroke-width="3" stroke-dasharray=""/><path fill="none" stroke="#877878" paint-order="fill stroke markers" d=" M 384 264 L 384 304" stroke-miterlimit="10" stroke-width="3" stroke-dasharray=""/><g transform="matrix(0,1,-1,0,384,232)"><path fill="none" stroke="url(#BZTFPfPUNEcT)" paint-order="fill stroke markers" d=" M 0 0 L 2 6 L 6 -6 L 10 6 L 14 -6 L 18 6 L 22 -6 L 26 6 L 30 -6 L 32 0" stroke-miterlimit="10" stroke-width="3" stroke-dasharray=""/></g><text fill="#ffffff" stroke="none" font-family="sans-serif" font-size="12px" font-style="normal" font-weight="normal" text-decoration="normal" x="394" y="254" text-anchor="start" dominant-baseline="alphabetic">1.2k</text><path fill="none" stroke="#38c738" paint-order="fill stroke markers" d=" M 432 192 L 432 232" stroke-miterlimit="10" stroke-width="3" stroke-dasharray=""/><path fill="none" stroke="#877878" paint-order="fill stroke markers" d=" M 432 264 L 432 304" stroke-miterlimit="10" stroke-width="3" stroke-dasharray=""/><g transform="matrix(0,1,-1,0,432,232)"><path fill="none" stroke="url(#SlAqdpVdbPFt)" paint-order="fill stroke markers" d=" M 0 0 L 2 6 L 6 -6 L 10 6 L 14 -6 L 18 6 L 22 -6 L 26 6 L 30 -6 L 32 0" stroke-miterlimit="10" stroke-width="3" stroke-dasharray=""/></g><text fill="#ffffff" stroke="none" font-family="sans-serif" font-size="12px" font-style="normal" font-weight="normal" text-decoration="normal" x="442" y="254" text-anchor="start" dominant-baseline="alphabetic">1.2k</text><path fill="none" stroke="#38c738" paint-order="fill stroke markers" d=" M 448 192 L 448 232" stroke-miterlimit="10" stroke-width="3" stroke-dasharray=""/><path fill="none" stroke="#877878" paint-order="fill stroke markers" d=" M 448 264 L 448 304" stroke-miterlimit="10" stroke-width="3" stroke-dasharray=""/><g transform="matrix(0,1,-1,0,448,232)"><path fill="none" stroke="url(#gwxTOsSPnKNM)" paint-order="fill stroke markers" d=" M 0 0 L 2 6 L 6 -6 L 10 6 L 14 -6 L 18 6 L 22 -6 L 26 6 L 30 -6 L 32 0" stroke-miterlimit="10" stroke-width="3" stroke-dasharray=""/></g><text fill="#ffffff" stroke="none" font-family="sans-serif" font-size="12px" font-style="normal" font-weight="normal" text-decoration="normal" x="458" y="254" text-anchor="start" dominant-baseline="alphabetic">1.2k</text><path fill="none" stroke="#38c738" paint-order="fill stroke markers" d=" M 464 192 L 464 232" stroke-miterlimit="10" stroke-width="3" stroke-dasharray=""/><path fill="none" stroke="#877878" paint-order="fill stroke markers" d=" M 464 264 L 464 304" stroke-miterlimit="10" stroke-width="3" stroke-dasharray=""/><g transform="matrix(0,1,-1,0,464,232)"><path fill="none" stroke="url(#dlBIzukTHiue)" paint-order="fill stroke markers" d=" M 0 0 L 2 6 L 6 -6 L 10 6 L 14 -6 L 18 6 L 22 -6 L 26 6 L 30 -6 L 32 0" stroke-miterlimit="10" stroke-width="3" stroke-dasharray=""/></g><text fill="#ffffff" stroke="none" font-family="sans-serif" font-size="12px" font-style="normal" font-weight="normal" text-decoration="normal" x="474" y="254" text-anchor="start" dominant-baseline="alphabetic">1.2k</text><path fill="none" stroke="#38c738" paint-order="fill stroke markers" d=" M 480 192 L 480 232" stroke-miterlimit="10" stroke-width="3" stroke-dasharray=""/><path fill="none" stroke="#877878" paint-order="fill stroke markers" d=" M 480 264 L 480 304" stroke-miterlimit="10" stroke-width="3" stroke-dasharray=""/><g transform="matrix(0,1,-1,0,480,232)"><path fill="none" stroke="url(#RSEiImCiZiKX)" paint-order="fill stroke markers" d=" M 0 0 L 2 6 L 6 -6 L 10 6 L 14 -6 L 18 6 L 22 -6 L 26 6 L 30 -6 L 32 0" stroke-miterlimit="10" stroke-width="3" stroke-dasharray=""/></g><text fill="#ffffff" stroke="none" font-family="sans-serif" font-size="12px" font-style="normal" font-weight="normal" text-decoration="normal" x="490" y="254" text-anchor="start" dominant-baseline="alphabetic">1.2k</text><path fill="none" stroke="#877878" paint-order="fill stroke markers" d=" M 480 304 L 464 304" stroke-miterlimit="10" stroke-width="3" stroke-dasharray=""/><text fill="#ffffff" stroke="none" font-family="sans-serif" font-size="12px" font-style="normal" font-weight="normal" text-decoration="normal" x="472" y="298" text-anchor="start" dominant-baseline="alphabetic"></text><path fill="none" stroke="#877878" paint-order="fill stroke markers" d=" M 464 304 L 448 304" stroke-miterlimit="10" stroke-width="3" stroke-dasharray=""/><text fill="#ffffff" stroke="none" font-family="sans-serif" font-size="12px" font-style="normal" font-weight="normal" text-decoration="normal" x="456" y="298" text-anchor="start" dominant-baseline="alphabetic"></text><path fill="none" stroke="#877878" paint-order="fill stroke markers" d=" M 448 304 L 432 304" stroke-miterlimit="10" stroke-width="3" stroke-dasharray=""/><text fill="#ffffff" stroke="none" font-family="sans-serif" font-size="12px" font-style="normal" font-weight="normal" text-decoration="normal" x="440" y="298" text-anchor="start" dominant-baseline="alphabetic"></text><path fill="none" stroke="#877878" paint-order="fill stroke markers" d=" M 432 304 L 384 304" stroke-miterlimit="10" stroke-width="3" stroke-dasharray=""/><text fill="#ffffff" stroke="none" font-family="sans-serif" font-size="12px" font-style="normal" font-weight="normal" text-decoration="normal" x="408" y="298" text-anchor="start" dominant-baseline="alphabetic"></text><path fill="none" stroke="#877878" paint-order="fill stroke markers" d=" M 384 304 L 368 304" stroke-miterlimit="10" stroke-width="3" stroke-dasharray=""/><text fill="#ffffff" stroke="none" font-family="sans-serif" font-size="12px" font-style="normal" font-weight="normal" text-decoration="normal" x="376" y="298" text-anchor="start" dominant-baseline="alphabetic"></text><path fill="none" stroke="#877878" paint-order="fill stroke markers" d=" M 368 304 L 352 304" stroke-miterlimit="10" stroke-width="3" stroke-dasharray=""/><text fill="#ffffff" stroke="none" font-family="sans-serif" font-size="12px" font-style="normal" font-weight="normal" text-decoration="normal" x="360" y="298" text-anchor="start" dominant-baseline="alphabetic"></text><path fill="none" stroke="#877878" paint-order="fill stroke markers" d=" M 320 304 L 352 304" stroke-miterlimit="10" stroke-width="3" stroke-dasharray=""/><text fill="#ffffff" stroke="none" font-family="sans-serif" font-size="12px" font-style="normal" font-weight="normal" text-decoration="normal" x="336" y="298" text-anchor="start" dominant-baseline="alphabetic"></text><path fill="none" stroke="#877878" paint-order="fill stroke markers" d=" M 320 304 L 320 304" stroke-miterlimit="10" stroke-width="3" stroke-dasharray=""/><path fill="none" stroke="#877878" paint-order="fill stroke markers" d=" M 320 336 L 320 336" stroke-miterlimit="10" stroke-width="3" stroke-dasharray=""/><path fill="none" stroke="#ffffff" paint-order="fill stroke markers" d=" M 322 304 L 322 336" stroke-miterlimit="10" stroke-width="3" stroke-dasharray=""/><g><text fill="#c0c0c0" stroke="none" font-family="sans-serif" font-size="10px" font-style="normal" font-weight="normal" text-decoration="normal" x="44" y="17" text-anchor="start" dominant-baseline="alphabetic">SPST substitution for the FET pulls 2 mA extra (22 mA vs 20 ma).</text></g><g><text fill="#c0c0c0" stroke="none" font-family="sans-serif" font-size="10px" font-style="normal" font-weight="normal" text-decoration="normal" x="47" y="45" text-anchor="start" dominant-baseline="alphabetic">The LEDs pull more or less depending on how many are lit.</text></g><path fill="#ffffff" stroke="none" paint-order="stroke fill markers" d=" M 19 432 A 3 3 0 1 1 18.99999999995775 431.99998407846124 Z"/><path fill="#ffffff" stroke="none" paint-order="stroke fill markers" d=" M 115 320 A 3 3 0 1 1 114.99999999995775 319.99998407846124 Z"/><path fill="#ffffff" stroke="none" paint-order="stroke fill markers" d=" M 227 416 A 3 3 0 1 1 226.99999999995774 415.99998407846124 Z"/><path fill="#ffffff" stroke="none" paint-order="stroke fill markers" d=" M 227 448 A 3 3 0 1 1 226.99999999995774 447.99998407846124 Z"/><path fill="#ffffff" stroke="none" paint-order="stroke fill markers" d=" M 323 112 A 3 3 0 1 1 322.99999999995777 111.99998407846124 Z"/><path fill="#ffffff" stroke="none" paint-order="stroke fill markers" d=" M 323 304 A 3 3 0 1 1 322.99999999995777 303.99998407846124 Z"/><path fill="#ffffff" stroke="none" paint-order="stroke fill markers" d=" M 355 112 A 3 3 0 1 1 354.99999999995777 111.99998407846124 Z"/><path fill="#ffffff" stroke="none" paint-order="stroke fill markers" d=" M 355 304 A 3 3 0 1 1 354.99999999995777 303.99998407846124 Z"/><path fill="#ffffff" stroke="none" paint-order="stroke fill markers" d=" M 371 112 A 3 3 0 1 1 370.99999999995777 111.99998407846124 Z"/><path fill="#ffffff" stroke="none" paint-order="stroke fill markers" d=" M 371 304 A 3 3 0 1 1 370.99999999995777 303.99998407846124 Z"/><path fill="#ffffff" stroke="none" paint-order="stroke fill markers" d=" M 387 112 A 3 3 0 1 1 386.99999999995777 111.99998407846124 Z"/><path fill="#ffffff" stroke="none" paint-order="stroke fill markers" d=" M 387 304 A 3 3 0 1 1 386.99999999995777 303.99998407846124 Z"/><path fill="#ffffff" stroke="none" paint-order="stroke fill markers" d=" M 435 112 A 3 3 0 1 1 434.99999999995777 111.99998407846124 Z"/><path fill="#ffffff" stroke="none" paint-order="stroke fill markers" d=" M 435 304 A 3 3 0 1 1 434.99999999995777 303.99998407846124 Z"/><path fill="#ffffff" stroke="none" paint-order="stroke fill markers" d=" M 451 112 A 3 3 0 1 1 450.99999999995777 111.99998407846124 Z"/><path fill="#ffffff" stroke="none" paint-order="stroke fill markers" d=" M 451 304 A 3 3 0 1 1 450.99999999995777 303.99998407846124 Z"/><path fill="#ffffff" stroke="none" paint-order="stroke fill markers" d=" M 467 112 A 3 3 0 1 1 466.99999999995777 111.99998407846124 Z"/><path fill="#ffffff" stroke="none" paint-order="stroke fill markers" d=" M 467 304 A 3 3 0 1 1 466.99999999995777 303.99998407846124 Z"/></g></g></svg>