<svg version="1.1" xmlns="http://www.w3.org/2000/svg" xmlns:xlink="http://www.w3.org/1999/xlink" width="924" height="532"><defs><linearGradient id="tnyHsHcTtaXF" x1="0px" x2="32px" y1="0px" y2="0px" gradientUnits="userSpaceOnUse"><stop offset="0" stop-color="#877878"/><stop offset="1" stop-color="#877878"/></linearGradient><linearGradient id="CAZVJyqTVllB" x1="0px" x2="32px" y1="0px" y2="0px" gradientUnits="userSpaceOnUse"><stop offset="0" stop-color="#38c738"/><stop offset="1" stop-color="#877878"/></linearGradient><linearGradient id="xMIiphBeuxly" x1="0px" x2="32px" y1="0px" y2="0px" gradientUnits="userSpaceOnUse"><stop offset="0" stop-color="#877878"/><stop offset="1" stop-color="#877878"/></linearGradient><linearGradient id="RBtzbdWNqNxz" x1="0px" x2="32px" y1="0px" y2="0px" gradientUnits="userSpaceOnUse"><stop offset="0" stop-color="#10ef10"/><stop offset="1" stop-color="#877878"/></linearGradient></defs><g><rect fill="#000000" stroke="none" x="0" y="0" width="1732" height="731"/><g transform="scale(1,1) translate(454,-30)"><path fill="none" stroke="#08f708" paint-order="fill stroke markers" d=" M -176 80 L -32 80" stroke-miterlimit="10" stroke-width="3" stroke-dasharray=""/><text fill="#ffffff" stroke="none" font-family="sans-serif" font-size="12px" font-style="normal" font-weight="normal" text-decoration="normal" x="-104" y="74" text-anchor="start" dominant-baseline="alphabetic"></text><path fill="none" stroke="#08f708" paint-order="fill stroke markers" d=" M -336 80 L -367 80" stroke-miterlimit="10" stroke-width="3" stroke-dasharray=""/><g><text fill="#ffffff" stroke="none" font-family="sans-serif" font-size="12px" font-style="normal" font-weight="normal" text-decoration="normal" x="-392" y="80" text-anchor="start" dominant-baseline="central">+5V</text></g><path fill="none" stroke="#877878" paint-order="fill stroke markers" d=" M -32 432 L -32 480" stroke-miterlimit="10" stroke-width="3" stroke-dasharray=""/><path fill="none" stroke="#877878" paint-order="fill stroke markers" d=" M -22 480 L -42 480" stroke-miterlimit="10" stroke-width="3" stroke-dasharray=""/><path fill="none" stroke="#877878" paint-order="fill stroke markers" d=" M -26 485 L -38 485" stroke-miterlimit="10" stroke-width="3" stroke-dasharray=""/><path fill="none" stroke="#877878" paint-order="fill stroke markers" d=" M -30 490 L -34 490" stroke-miterlimit="10" stroke-width="3" stroke-dasharray=""/><path fill="none" stroke="#877878" paint-order="fill stroke markers" d=" M 176 448 L 176 480" stroke-miterlimit="10" stroke-width="3" stroke-dasharray=""/><path fill="none" stroke="#877878" paint-order="fill stroke markers" d=" M 186 480 L 166 480" stroke-miterlimit="10" stroke-width="3" stroke-dasharray=""/><path fill="none" stroke="#877878" paint-order="fill stroke markers" d=" M 182 485 L 170 485" stroke-miterlimit="10" stroke-width="3" stroke-dasharray=""/><path fill="none" stroke="#877878" paint-order="fill stroke markers" d=" M 178 490 L 174 490" stroke-miterlimit="10" stroke-width="3" stroke-dasharray=""/><path fill="none" stroke="#877878" paint-order="fill stroke markers" d=" M 400 384 L 400 400" stroke-miterlimit="10" stroke-width="3" stroke-dasharray=""/><path fill="none" stroke="#877878" paint-order="fill stroke markers" d=" M 400 432 L 400 448" stroke-miterlimit="10" stroke-width="3" stroke-dasharray=""/><g transform="matrix(0,1,-1,0,400,400)"><path fill="none" stroke="url(#tnyHsHcTtaXF)" paint-order="fill stroke markers" d=" M 0 0 L 2 6 L 6 -6 L 10 6 L 14 -6 L 18 6 L 22 -6 L 26 6 L 30 -6 L 32 0" stroke-miterlimit="10" stroke-width="3" stroke-dasharray=""/></g><text fill="#ffffff" stroke="none" font-family="sans-serif" font-size="12px" font-style="normal" font-weight="normal" text-decoration="normal" x="410" y="422" text-anchor="start" dominant-baseline="alphabetic">330</text><path fill="none" stroke="#10ef10" paint-order="fill stroke markers" d=" M 176 288 L 176 300" stroke-miterlimit="10" stroke-width="3" stroke-dasharray=""/><path fill="none" stroke="#38c738" paint-order="fill stroke markers" d=" M 176 324 L 176 336" stroke-miterlimit="10" stroke-width="3" stroke-dasharray=""/><path fill="none" stroke="#808080" paint-order="fill stroke markers" d=" M 187.76 312 A 11.76 11.76 0 1 1 187.7599941200005 311.98824000196" stroke-miterlimit="10" stroke-width="3" stroke-dasharray=""/><path fill="#fb0000" stroke="none" paint-order="stroke fill markers" d=" M 184 312 A 8 8 0 1 1 183.99999999988734 311.9999575425633 Z"/><path fill="none" stroke="#08f708" paint-order="fill stroke markers" d=" M -32 80 L -32 112" stroke-miterlimit="10" stroke-width="3" stroke-dasharray=""/><text fill="#ffffff" stroke="none" font-family="sans-serif" font-size="12px" font-style="normal" font-weight="normal" text-decoration="normal" x="-26" y="102" text-anchor="start" dominant-baseline="alphabetic"></text><path fill="none" stroke="#08f708" paint-order="fill stroke markers" d=" M -32 112 L -32 144" stroke-miterlimit="10" stroke-width="3" stroke-dasharray=""/><path fill="#08f708" stroke="none" paint-order="stroke fill markers" d=" M -32 131 L -25 117 L -39 117 Z"/><text fill="#ffffff" stroke="none" font-family="sans-serif" font-size="12px" font-style="normal" font-weight="normal" text-decoration="normal" x="-26" y="134" text-anchor="start" dominant-baseline="alphabetic">221.141 nA</text><path fill="none" stroke="#10ef10" paint-order="fill stroke markers" d=" M 176 256 L 154 256" stroke-miterlimit="10" stroke-width="3" stroke-dasharray=""/><path fill="none" stroke="#08f708" paint-order="fill stroke markers" d=" M 176 224 L 154 224" stroke-miterlimit="10" stroke-width="3" stroke-dasharray=""/><path fill="none" stroke="#10ef10" paint-order="fill stroke markers" d=" M 154 256 L 154 251" stroke-miterlimit="10" stroke-width="3" stroke-dasharray=""/><path fill="none" stroke="#10ef10" paint-order="fill stroke markers" d=" M 154 245 L 154 240" stroke-miterlimit="10" stroke-width="3" stroke-dasharray=""/><path fill="none" stroke="#10ef10" paint-order="fill stroke markers" d=" M 154 240 L 154 235" stroke-miterlimit="10" stroke-width="3" stroke-dasharray=""/><path fill="none" stroke="#10ef10" paint-order="fill stroke markers" d=" M 154 229 L 154 224" stroke-miterlimit="10" stroke-width="3" stroke-dasharray=""/><path fill="none" stroke="#10ef10" paint-order="fill stroke markers" d=" M 154 256 L 154 261" stroke-miterlimit="10" stroke-width="3" stroke-dasharray=""/><path fill="none" stroke="#08f708" paint-order="fill stroke markers" d=" M 154 224 L 154 219" stroke-miterlimit="10" stroke-width="3" stroke-dasharray=""/><path fill="none" stroke="#08f708" paint-order="fill stroke markers" d=" M 176 224 L 176 240" stroke-miterlimit="10" stroke-width="3" stroke-dasharray=""/><path fill="none" stroke="#08f708" paint-order="fill stroke markers" d=" M 176 240 L 154 240" stroke-miterlimit="10" stroke-width="3" stroke-dasharray=""/><path fill="#08f708" stroke="none" paint-order="stroke fill markers" d=" M 176 240 L 164 235 L 164 245 Z"/><path fill="none" stroke="#877878" paint-order="fill stroke markers" d=" M 112 240 L 148 240" stroke-miterlimit="10" stroke-width="3" stroke-dasharray=""/><path fill="none" stroke="#877878" paint-order="fill stroke markers" d=" M 148 232 L 148 248" stroke-miterlimit="10" stroke-width="3" stroke-dasharray=""/><path fill="none" stroke="#788778" paint-order="fill stroke markers" d=" M 400 240 L 378 240" stroke-miterlimit="10" stroke-width="3" stroke-dasharray=""/><path fill="none" stroke="#08f708" paint-order="fill stroke markers" d=" M 400 208 L 378 208" stroke-miterlimit="10" stroke-width="3" stroke-dasharray=""/><path fill="none" stroke="#788778" paint-order="fill stroke markers" d=" M 378 240 L 378 235" stroke-miterlimit="10" stroke-width="3" stroke-dasharray=""/><path fill="none" stroke="#50af50" paint-order="fill stroke markers" d=" M 378 229 L 378 224" stroke-miterlimit="10" stroke-width="3" stroke-dasharray=""/><path fill="none" stroke="#40bf40" paint-order="fill stroke markers" d=" M 378 224 L 378 219" stroke-miterlimit="10" stroke-width="3" stroke-dasharray=""/><path fill="none" stroke="#20df20" paint-order="fill stroke markers" d=" M 378 213 L 378 208" stroke-miterlimit="10" stroke-width="3" stroke-dasharray=""/><path fill="none" stroke="#788778" paint-order="fill stroke markers" d=" M 378 240 L 378 245" stroke-miterlimit="10" stroke-width="3" stroke-dasharray=""/><path fill="none" stroke="#08f708" paint-order="fill stroke markers" d=" M 378 208 L 378 203" stroke-miterlimit="10" stroke-width="3" stroke-dasharray=""/><path fill="none" stroke="#08f708" paint-order="fill stroke markers" d=" M 400 208 L 400 224" stroke-miterlimit="10" stroke-width="3" stroke-dasharray=""/><path fill="none" stroke="#08f708" paint-order="fill stroke markers" d=" M 400 224 L 378 224" stroke-miterlimit="10" stroke-width="3" stroke-dasharray=""/><path fill="#08f708" stroke="none" paint-order="stroke fill markers" d=" M 400 224 L 388 219 L 388 229 Z"/><path fill="none" stroke="#10ef10" paint-order="fill stroke markers" d=" M 336 224 L 372 224" stroke-miterlimit="10" stroke-width="3" stroke-dasharray=""/><path fill="none" stroke="#10ef10" paint-order="fill stroke markers" d=" M 372 216 L 372 232" stroke-miterlimit="10" stroke-width="3" stroke-dasharray=""/><path fill="none" stroke="#08f708" paint-order="fill stroke markers" d=" M 176 80 L 400 80" stroke-miterlimit="10" stroke-width="3" stroke-dasharray=""/><text fill="#ffffff" stroke="none" font-family="sans-serif" font-size="12px" font-style="normal" font-weight="normal" text-decoration="normal" x="288" y="74" text-anchor="start" dominant-baseline="alphabetic"></text><path fill="none" stroke="#08f708" paint-order="fill stroke markers" d=" M 400 80 L 400 208" stroke-miterlimit="10" stroke-width="3" stroke-dasharray=""/><path fill="#08f708" stroke="none" paint-order="stroke fill markers" d=" M 400 157 L 407 143 L 393 143 Z"/><text fill="#ffffff" stroke="none" font-family="sans-serif" font-size="12px" font-style="normal" font-weight="normal" text-decoration="normal" x="406" y="150" text-anchor="start" dominant-baseline="alphabetic">213.968 nA</text><path fill="none" stroke="#788778" paint-order="fill stroke markers" d=" M 400 288 L 400 300" stroke-miterlimit="10" stroke-width="3" stroke-dasharray=""/><path fill="none" stroke="#877878" paint-order="fill stroke markers" d=" M 400 324 L 400 336" stroke-miterlimit="10" stroke-width="3" stroke-dasharray=""/><path fill="none" stroke="#808080" paint-order="fill stroke markers" d=" M 411.76 312 A 11.76 11.76 0 1 1 411.7599941200005 311.98824000196" stroke-miterlimit="10" stroke-width="3" stroke-dasharray=""/><path fill="#000000" stroke="none" paint-order="stroke fill markers" d=" M 408 312 A 8 8 0 1 1 407.99999999988734 311.9999575425633 Z"/><path fill="none" stroke="#38c738" paint-order="fill stroke markers" d=" M 176 384 L 176 400" stroke-miterlimit="10" stroke-width="3" stroke-dasharray=""/><path fill="none" stroke="#877878" paint-order="fill stroke markers" d=" M 176 432 L 176 448" stroke-miterlimit="10" stroke-width="3" stroke-dasharray=""/><g transform="matrix(0,1,-1,0,176,400)"><path fill="none" stroke="url(#CAZVJyqTVllB)" paint-order="fill stroke markers" d=" M 0 0 L 2 6 L 6 -6 L 10 6 L 14 -6 L 18 6 L 22 -6 L 26 6 L 30 -6 L 32 0" stroke-miterlimit="10" stroke-width="3" stroke-dasharray=""/></g><text fill="#ffffff" stroke="none" font-family="sans-serif" font-size="12px" font-style="normal" font-weight="normal" text-decoration="normal" x="186" y="422" text-anchor="start" dominant-baseline="alphabetic">330</text><path fill="none" stroke="#877878" paint-order="fill stroke markers" d=" M 400 336 L 400 384" stroke-miterlimit="10" stroke-width="3" stroke-dasharray=""/><path fill="#877878" stroke="none" paint-order="stroke fill markers" d=" M 400 365 L 407 351 L 393 351 Z"/><text fill="#ffffff" stroke="none" font-family="sans-serif" font-size="12px" font-style="normal" font-weight="normal" text-decoration="normal" x="406" y="366" text-anchor="start" dominant-baseline="alphabetic">213.968 nA</text><path fill="none" stroke="#877878" paint-order="fill stroke markers" d=" M 400 448 L 400 480" stroke-miterlimit="10" stroke-width="3" stroke-dasharray=""/><path fill="none" stroke="#877878" paint-order="fill stroke markers" d=" M 410 480 L 390 480" stroke-miterlimit="10" stroke-width="3" stroke-dasharray=""/><path fill="none" stroke="#877878" paint-order="fill stroke markers" d=" M 406 485 L 394 485" stroke-miterlimit="10" stroke-width="3" stroke-dasharray=""/><path fill="none" stroke="#877878" paint-order="fill stroke markers" d=" M 402 490 L 398 490" stroke-miterlimit="10" stroke-width="3" stroke-dasharray=""/><path fill="none" stroke="#38c738" paint-order="fill stroke markers" d=" M 176 336 L 176 384" stroke-miterlimit="10" stroke-width="3" stroke-dasharray=""/><path fill="#38c738" stroke="none" paint-order="stroke fill markers" d=" M 176 365 L 183 351 L 169 351 Z"/><text fill="#ffffff" stroke="none" font-family="sans-serif" font-size="12px" font-style="normal" font-weight="normal" text-decoration="normal" x="182" y="366" text-anchor="start" dominant-baseline="alphabetic">9.348 mA</text><path fill="none" stroke="#08f708" paint-order="fill stroke markers" d=" M -32 80 L 176 80" stroke-miterlimit="10" stroke-width="3" stroke-dasharray=""/><text fill="#ffffff" stroke="none" font-family="sans-serif" font-size="12px" font-style="normal" font-weight="normal" text-decoration="normal" x="72" y="74" text-anchor="start" dominant-baseline="alphabetic"></text><path fill="none" stroke="#10ef10" paint-order="fill stroke markers" d=" M -176 320 L -198 320" stroke-miterlimit="10" stroke-width="3" stroke-dasharray=""/><path fill="none" stroke="#08f708" paint-order="fill stroke markers" d=" M -176 288 L -198 288" stroke-miterlimit="10" stroke-width="3" stroke-dasharray=""/><path fill="none" stroke="#10ef10" paint-order="fill stroke markers" d=" M -198 320 L -198 315" stroke-miterlimit="10" stroke-width="3" stroke-dasharray=""/><path fill="none" stroke="#10ef10" paint-order="fill stroke markers" d=" M -198 309 L -198 304" stroke-miterlimit="10" stroke-width="3" stroke-dasharray=""/><path fill="none" stroke="#10ef10" paint-order="fill stroke markers" d=" M -198 304 L -198 299" stroke-miterlimit="10" stroke-width="3" stroke-dasharray=""/><path fill="none" stroke="#10ef10" paint-order="fill stroke markers" d=" M -198 293 L -198 288" stroke-miterlimit="10" stroke-width="3" stroke-dasharray=""/><path fill="none" stroke="#10ef10" paint-order="fill stroke markers" d=" M -198 320 L -198 325" stroke-miterlimit="10" stroke-width="3" stroke-dasharray=""/><path fill="none" stroke="#08f708" paint-order="fill stroke markers" d=" M -198 288 L -198 283" stroke-miterlimit="10" stroke-width="3" stroke-dasharray=""/><path fill="none" stroke="#08f708" paint-order="fill stroke markers" d=" M -176 288 L -176 304" stroke-miterlimit="10" stroke-width="3" stroke-dasharray=""/><path fill="none" stroke="#08f708" paint-order="fill stroke markers" d=" M -176 304 L -198 304" stroke-miterlimit="10" stroke-width="3" stroke-dasharray=""/><path fill="#08f708" stroke="none" paint-order="stroke fill markers" d=" M -176 304 L -188 299 L -188 309 Z"/><path fill="none" stroke="#ff0000" paint-order="fill stroke markers" d=" M -240 304 L -204 304" stroke-miterlimit="10" stroke-width="3" stroke-dasharray=""/><path fill="none" stroke="#ff0000" paint-order="fill stroke markers" d=" M -204 296 L -204 312" stroke-miterlimit="10" stroke-width="3" stroke-dasharray=""/><path fill="none" stroke="#877878" paint-order="fill stroke markers" d=" M -176 448 L -176 480" stroke-miterlimit="10" stroke-width="3" stroke-dasharray=""/><path fill="none" stroke="#877878" paint-order="fill stroke markers" d=" M -166 480 L -186 480" stroke-miterlimit="10" stroke-width="3" stroke-dasharray=""/><path fill="none" stroke="#877878" paint-order="fill stroke markers" d=" M -170 485 L -182 485" stroke-miterlimit="10" stroke-width="3" stroke-dasharray=""/><path fill="none" stroke="#877878" paint-order="fill stroke markers" d=" M -174 490 L -178 490" stroke-miterlimit="10" stroke-width="3" stroke-dasharray=""/><path fill="none" stroke="#ff0000" paint-order="fill stroke markers" d=" M -288 224 L -240 224" stroke-miterlimit="10" stroke-width="3" stroke-dasharray=""/><text fill="#ffffff" stroke="none" font-family="sans-serif" font-size="12px" font-style="normal" font-weight="normal" text-decoration="normal" x="-264" y="218" text-anchor="start" dominant-baseline="alphabetic"></text><path fill="none" stroke="#ff0000" paint-order="fill stroke markers" d=" M -240 224 L -96 224" stroke-miterlimit="10" stroke-width="3" stroke-dasharray=""/><text fill="#ffffff" stroke="none" font-family="sans-serif" font-size="12px" font-style="normal" font-weight="normal" text-decoration="normal" x="-168" y="218" text-anchor="start" dominant-baseline="alphabetic"></text><path fill="none" stroke="#ff0000" paint-order="fill stroke markers" d=" M -240 224 L -240 304" stroke-miterlimit="10" stroke-width="3" stroke-dasharray=""/><text fill="#ffffff" stroke="none" font-family="sans-serif" font-size="12px" font-style="normal" font-weight="normal" text-decoration="normal" x="-234" y="270" text-anchor="start" dominant-baseline="alphabetic"></text><path fill="none" stroke="#08f708" paint-order="fill stroke markers" d=" M -336 80 L -176 80" stroke-miterlimit="10" stroke-width="3" stroke-dasharray=""/><text fill="#ffffff" stroke="none" font-family="sans-serif" font-size="12px" font-style="normal" font-weight="normal" text-decoration="normal" x="-256" y="74" text-anchor="start" dominant-baseline="alphabetic"></text><path fill="none" stroke="#10ef10" paint-order="fill stroke markers" d=" M -112 320 L -112 512" stroke-miterlimit="10" stroke-width="3" stroke-dasharray=""/><text fill="#ffffff" stroke="none" font-family="sans-serif" font-size="12px" font-style="normal" font-weight="normal" text-decoration="normal" x="-106" y="422" text-anchor="start" dominant-baseline="alphabetic"></text><path fill="none" stroke="#10ef10" paint-order="fill stroke markers" d=" M -112 512 L 336 512" stroke-miterlimit="10" stroke-width="3" stroke-dasharray=""/><text fill="#ffffff" stroke="none" font-family="sans-serif" font-size="12px" font-style="normal" font-weight="normal" text-decoration="normal" x="112" y="506" text-anchor="start" dominant-baseline="alphabetic"></text><path fill="none" stroke="#10ef10" paint-order="fill stroke markers" d=" M 336 512 L 336 224" stroke-miterlimit="10" stroke-width="3" stroke-dasharray=""/><text fill="#ffffff" stroke="none" font-family="sans-serif" font-size="12px" font-style="normal" font-weight="normal" text-decoration="normal" x="342" y="374" text-anchor="start" dominant-baseline="alphabetic"></text><path fill="none" stroke="#08f708" paint-order="fill stroke markers" d=" M 176 80 L 176 224" stroke-miterlimit="10" stroke-width="3" stroke-dasharray=""/><path fill="#08f708" stroke="none" paint-order="stroke fill markers" d=" M 176 166 L 183 152 L 169 152 Z"/><text fill="#ffffff" stroke="none" font-family="sans-serif" font-size="12px" font-style="normal" font-weight="normal" text-decoration="normal" x="182" y="158" text-anchor="start" dominant-baseline="alphabetic">9.348 mA</text><path fill="none" stroke="#08f708" paint-order="fill stroke markers" d=" M -176 112 L -176 144" stroke-miterlimit="10" stroke-width="3" stroke-dasharray=""/><path fill="#08f708" stroke="none" paint-order="stroke fill markers" d=" M -176 131 L -169 117 L -183 117 Z"/><text fill="#ffffff" stroke="none" font-family="sans-serif" font-size="12px" font-style="normal" font-weight="normal" text-decoration="normal" x="-170" y="134" text-anchor="start" dominant-baseline="alphabetic">37.592 μA</text><path fill="none" stroke="#10ef10" paint-order="fill stroke markers" d=" M -112 320 L -176 320" stroke-miterlimit="10" stroke-width="3" stroke-dasharray=""/><text fill="#ffffff" stroke="none" font-family="sans-serif" font-size="12px" font-style="normal" font-weight="normal" text-decoration="normal" x="-144" y="314" text-anchor="start" dominant-baseline="alphabetic"></text><path fill="none" stroke="#10ef10" paint-order="fill stroke markers" d=" M 176 256 L 176 288" stroke-miterlimit="10" stroke-width="3" stroke-dasharray=""/><text fill="#ffffff" stroke="none" font-family="sans-serif" font-size="12px" font-style="normal" font-weight="normal" text-decoration="normal" x="182" y="278" text-anchor="start" dominant-baseline="alphabetic"></text><path fill="none" stroke="#877878" paint-order="fill stroke markers" d=" M -32 240 L -32 320" stroke-miterlimit="10" stroke-width="3" stroke-dasharray=""/><text fill="#ffffff" stroke="none" font-family="sans-serif" font-size="12px" font-style="normal" font-weight="normal" text-decoration="normal" x="-26" y="286" text-anchor="start" dominant-baseline="alphabetic"></text><path fill="none" stroke="#877878" paint-order="fill stroke markers" d=" M 48 240 L -32 240" stroke-miterlimit="10" stroke-width="3" stroke-dasharray=""/><text fill="#ffffff" stroke="none" font-family="sans-serif" font-size="12px" font-style="normal" font-weight="normal" text-decoration="normal" x="8" y="234" text-anchor="start" dominant-baseline="alphabetic"></text><path fill="none" stroke="#788778" paint-order="fill stroke markers" d=" M 400 240 L 400 288" stroke-miterlimit="10" stroke-width="3" stroke-dasharray=""/><text fill="#ffffff" stroke="none" font-family="sans-serif" font-size="12px" font-style="normal" font-weight="normal" text-decoration="normal" x="406" y="270" text-anchor="start" dominant-baseline="alphabetic"></text><path fill="none" stroke="#08f708" paint-order="fill stroke markers" d=" M -176 112 L -176 80" stroke-miterlimit="10" stroke-width="3" stroke-dasharray=""/><text fill="#ffffff" stroke="none" font-family="sans-serif" font-size="12px" font-style="normal" font-weight="normal" text-decoration="normal" x="-170" y="102" text-anchor="start" dominant-baseline="alphabetic"></text><path fill="none" stroke="#08f708" paint-order="fill stroke markers" d=" M -176 144 L -176 208" stroke-miterlimit="10" stroke-width="3" stroke-dasharray=""/><text fill="#ffffff" stroke="none" font-family="sans-serif" font-size="12px" font-style="normal" font-weight="normal" text-decoration="normal" x="-170" y="182" text-anchor="start" dominant-baseline="alphabetic"></text><path fill="none" stroke="#08f708" paint-order="fill stroke markers" d=" M -176 208 L -160 208" stroke-miterlimit="10" stroke-width="3" stroke-dasharray=""/><text fill="#ffffff" stroke="none" font-family="sans-serif" font-size="12px" font-style="normal" font-weight="normal" text-decoration="normal" x="-168" y="202" text-anchor="start" dominant-baseline="alphabetic"></text><path fill="none" stroke="#08f708" paint-order="fill stroke markers" d=" M -160 208 L -160 240" stroke-miterlimit="10" stroke-width="3" stroke-dasharray=""/><text fill="#ffffff" stroke="none" font-family="sans-serif" font-size="12px" font-style="normal" font-weight="normal" text-decoration="normal" x="-154" y="230" text-anchor="start" dominant-baseline="alphabetic"></text><path fill="none" stroke="#08f708" paint-order="fill stroke markers" d=" M -160 240 L -176 240" stroke-miterlimit="10" stroke-width="3" stroke-dasharray=""/><text fill="#ffffff" stroke="none" font-family="sans-serif" font-size="12px" font-style="normal" font-weight="normal" text-decoration="normal" x="-168" y="234" text-anchor="start" dominant-baseline="alphabetic"></text><path fill="none" stroke="#08f708" paint-order="fill stroke markers" d=" M -176 240 L -176 288" stroke-miterlimit="10" stroke-width="3" stroke-dasharray=""/><text fill="#ffffff" stroke="none" font-family="sans-serif" font-size="12px" font-style="normal" font-weight="normal" text-decoration="normal" x="-170" y="270" text-anchor="start" dominant-baseline="alphabetic"></text><path fill="none" stroke="#877878" paint-order="fill stroke markers" d=" M -32 320 L -32 360" stroke-miterlimit="10" stroke-width="3" stroke-dasharray=""/><path fill="none" stroke="#877878" paint-order="fill stroke markers" d=" M -32 392 L -32 432" stroke-miterlimit="10" stroke-width="3" stroke-dasharray=""/><g transform="matrix(0,1,-1,0,-32,360)"><path fill="none" stroke="url(#xMIiphBeuxly)" paint-order="fill stroke markers" d=" M 0 0 L 2 6 L 6 -6 L 10 6 L 14 -6 L 18 6 L 22 -6 L 26 6 L 30 -6 L 32 0" stroke-miterlimit="10" stroke-width="3" stroke-dasharray=""/></g><text fill="#ffffff" stroke="none" font-family="sans-serif" font-size="12px" font-style="normal" font-weight="normal" text-decoration="normal" x="-22" y="382" text-anchor="start" dominant-baseline="alphabetic">133k</text><path fill="none" stroke="#10ef10" paint-order="fill stroke markers" d=" M -176 320 L -176 368" stroke-miterlimit="10" stroke-width="3" stroke-dasharray=""/><path fill="none" stroke="#877878" paint-order="fill stroke markers" d=" M -176 400 L -176 448" stroke-miterlimit="10" stroke-width="3" stroke-dasharray=""/><g transform="matrix(0,1,-1,0,-176,368)"><path fill="none" stroke="url(#RBtzbdWNqNxz)" paint-order="fill stroke markers" d=" M 0 0 L 2 6 L 6 -6 L 10 6 L 14 -6 L 18 6 L 22 -6 L 26 6 L 30 -6 L 32 0" stroke-miterlimit="10" stroke-width="3" stroke-dasharray=""/></g><text fill="#ffffff" stroke="none" font-family="sans-serif" font-size="12px" font-style="normal" font-weight="normal" text-decoration="normal" x="-166" y="390" text-anchor="start" dominant-baseline="alphabetic">133k</text><path fill="none" stroke="#ff0000" paint-order="fill stroke markers" d=" M -288 224 L -303 224" stroke-miterlimit="10" stroke-width="3" stroke-dasharray=""/><path fill="none" stroke="#808080" paint-order="fill stroke markers" d=" M -303.34 224 A 16.66 16.66 0 1 1 -303.3400083299993 223.98334000277666" stroke-miterlimit="10" stroke-width="3" stroke-dasharray=""/><path fill="none" stroke="#808080" paint-order="fill stroke markers" d=" M -328 216 L -328 224" stroke-miterlimit="10" stroke-width="3" stroke-dasharray=""/><path fill="none" stroke="#808080" paint-order="fill stroke markers" d=" M -328 216 L -320 216" stroke-miterlimit="10" stroke-width="3" stroke-dasharray=""/><path fill="none" stroke="#808080" paint-order="fill stroke markers" d=" M -320 216 L -320 232" stroke-miterlimit="10" stroke-width="3" stroke-dasharray=""/><path fill="none" stroke="#808080" paint-order="fill stroke markers" d=" M -312 232 L -320 232" stroke-miterlimit="10" stroke-width="3" stroke-dasharray=""/><path fill="none" stroke="#808080" paint-order="fill stroke markers" d=" M -312 224 L -312 232" stroke-miterlimit="10" stroke-width="3" stroke-dasharray=""/><text fill="#ffffff" stroke="none" font-family="sans-serif" font-size="12px" font-style="normal" font-weight="normal" text-decoration="normal" x="-335" y="205" text-anchor="start" dominant-baseline="alphabetic">9.4Hz</text><g><path fill="none" stroke="#ff0000" paint-order="fill stroke markers" d=" M -240 304 L -240 336" stroke-miterlimit="10" stroke-width="3" stroke-dasharray=""/><path fill="none" stroke="#877878" paint-order="fill stroke markers" d=" M -240 352 L -240 384" stroke-miterlimit="10" stroke-width="3" stroke-dasharray=""/><text fill="#ffffff" stroke="none" font-family="sans-serif" font-size="12px" font-style="normal" font-weight="normal" text-decoration="normal" x="-234" y="350" text-anchor="start" dominant-baseline="alphabetic">-5 V</text><text fill="#ffffff" stroke="none" font-family="sans-serif" font-size="12px" font-style="normal" font-weight="normal" text-decoration="normal" x="-253" y="336" text-anchor="start" dominant-baseline="alphabetic">+</text></g><path fill="none" stroke="#877878" paint-order="fill stroke markers" d=" M 48 240 L 112 240" stroke-miterlimit="10" stroke-width="3" stroke-dasharray=""/><text fill="#ffffff" stroke="none" font-family="sans-serif" font-size="12px" font-style="normal" font-weight="normal" text-decoration="normal" x="80" y="234" text-anchor="start" dominant-baseline="alphabetic"></text><path fill="none" stroke="#08f708" paint-order="fill stroke markers" d=" M -32 144 L -32 208" stroke-miterlimit="10" stroke-width="3" stroke-dasharray=""/><text fill="#ffffff" stroke="none" font-family="sans-serif" font-size="12px" font-style="normal" font-weight="normal" text-decoration="normal" x="-26" y="182" text-anchor="start" dominant-baseline="alphabetic"></text><path fill="none" stroke="#877878" paint-order="fill stroke markers" d=" M -32 240 L -54 240" stroke-miterlimit="10" stroke-width="3" stroke-dasharray=""/><path fill="none" stroke="#08f708" paint-order="fill stroke markers" d=" M -32 208 L -54 208" stroke-miterlimit="10" stroke-width="3" stroke-dasharray=""/><path fill="none" stroke="#877878" paint-order="fill stroke markers" d=" M -54 240 L -54 235" stroke-miterlimit="10" stroke-width="3" stroke-dasharray=""/><path fill="none" stroke="#609f60" paint-order="fill stroke markers" d=" M -54 229 L -54 224" stroke-miterlimit="10" stroke-width="3" stroke-dasharray=""/><path fill="none" stroke="#48b748" paint-order="fill stroke markers" d=" M -54 224 L -54 219" stroke-miterlimit="10" stroke-width="3" stroke-dasharray=""/><path fill="none" stroke="#20df20" paint-order="fill stroke markers" d=" M -54 213 L -54 208" stroke-miterlimit="10" stroke-width="3" stroke-dasharray=""/><path fill="none" stroke="#877878" paint-order="fill stroke markers" d=" M -54 240 L -54 245" stroke-miterlimit="10" stroke-width="3" stroke-dasharray=""/><path fill="none" stroke="#08f708" paint-order="fill stroke markers" d=" M -54 208 L -54 203" stroke-miterlimit="10" stroke-width="3" stroke-dasharray=""/><path fill="none" stroke="#877878" paint-order="fill stroke markers" d=" M -32 240 L -32 224" stroke-miterlimit="10" stroke-width="3" stroke-dasharray=""/><path fill="none" stroke="#877878" paint-order="fill stroke markers" d=" M -32 224 L -54 224" stroke-miterlimit="10" stroke-width="3" stroke-dasharray=""/><path fill="#877878" stroke="none" paint-order="stroke fill markers" d=" M -54 224 L -42 229 L -42 219 Z"/><path fill="none" stroke="#ff0000" paint-order="fill stroke markers" d=" M -96 224 L -60 224" stroke-miterlimit="10" stroke-width="3" stroke-dasharray=""/><path fill="none" stroke="#ff0000" paint-order="fill stroke markers" d=" M -60 216 L -60 232" stroke-miterlimit="10" stroke-width="3" stroke-dasharray=""/><path fill="#ffffff" stroke="none" paint-order="stroke fill markers" d=" M -29 80 A 3 3 0 1 1 -29.00000000004225 79.99998407846124 Z"/><path fill="#ffffff" stroke="none" paint-order="stroke fill markers" d=" M -29 240 A 3 3 0 1 1 -29.00000000004225 239.99998407846124 Z"/><path fill="#ffffff" stroke="none" paint-order="stroke fill markers" d=" M 179 80 A 3 3 0 1 1 178.99999999995774 79.99998407846124 Z"/><path fill="#ffffff" stroke="none" paint-order="stroke fill markers" d=" M -173 80 A 3 3 0 1 1 -173.00000000004226 79.99998407846124 Z"/><path fill="#ffffff" stroke="none" paint-order="stroke fill markers" d=" M -237 304 A 3 3 0 1 1 -237.00000000004226 303.99998407846124 Z"/><path fill="#ffffff" stroke="none" paint-order="stroke fill markers" d=" M -173 320 A 3 3 0 1 1 -173.00000000004226 319.99998407846124 Z"/><path fill="#ffffff" stroke="none" paint-order="stroke fill markers" d=" M -237 224 A 3 3 0 1 1 -237.00000000004226 223.99998407846124 Z"/><path fill="#ffffff" stroke="none" paint-order="stroke fill markers" d=" M -237 384 A 3 3 0 1 1 -237.00000000004226 383.99998407846124 Z"/></g></g></svg>